<mxfile host="app.diagrams.net" agent="Mozilla/5.0 (X11; Linux x86_64) AppleWebKit/537.36 (KHTML, like Gecko) Chrome/139.0.0.0 Safari/537.36" version="28.2.5">
  <diagram name="Page-1" id="uMcPfF2EsDGA6t7xpgZp">
    <mxGraphModel dx="1477" dy="1193" grid="1" gridSize="10" guides="1" tooltips="1" connect="1" arrows="1" fold="1" page="0" pageScale="1" pageWidth="1100" pageHeight="850" math="0" shadow="0">
      <root>
        <mxCell id="0" />
        <mxCell id="1" parent="0" />
        <mxCell id="tH7wvdJ0bGoqoePG1BPO-1" value="collection" style="whiteSpace=wrap;html=1;align=center;" vertex="1" parent="1">
          <mxGeometry x="-250" y="290" width="100" height="40" as="geometry" />
        </mxCell>
        <mxCell id="tH7wvdJ0bGoqoePG1BPO-2" value="product" style="whiteSpace=wrap;html=1;align=center;" vertex="1" parent="1">
          <mxGeometry x="170" y="290" width="100" height="40" as="geometry" />
        </mxCell>
        <mxCell id="tH7wvdJ0bGoqoePG1BPO-3" value="customer" style="whiteSpace=wrap;html=1;align=center;" vertex="1" parent="1">
          <mxGeometry x="-440" y="770" width="100" height="40" as="geometry" />
        </mxCell>
        <mxCell id="tH7wvdJ0bGoqoePG1BPO-4" value="order" style="whiteSpace=wrap;html=1;align=center;" vertex="1" parent="1">
          <mxGeometry x="-100" y="770" width="100" height="40" as="geometry" />
        </mxCell>
        <mxCell id="tH7wvdJ0bGoqoePG1BPO-5" value="address" style="whiteSpace=wrap;html=1;align=center;" vertex="1" parent="1">
          <mxGeometry x="-440" y="520" width="100" height="40" as="geometry" />
        </mxCell>
        <mxCell id="tH7wvdJ0bGoqoePG1BPO-6" value="cart" style="whiteSpace=wrap;html=1;align=center;" vertex="1" parent="1">
          <mxGeometry x="170" y="770" width="100" height="40" as="geometry" />
        </mxCell>
        <mxCell id="tH7wvdJ0bGoqoePG1BPO-7" value="cart item" style="whiteSpace=wrap;html=1;align=center;" vertex="1" parent="1">
          <mxGeometry x="170" y="520" width="100" height="40" as="geometry" />
        </mxCell>
        <mxCell id="tH7wvdJ0bGoqoePG1BPO-8" value="order item" style="whiteSpace=wrap;html=1;align=center;" vertex="1" parent="1">
          <mxGeometry x="-100" y="520" width="100" height="40" as="geometry" />
        </mxCell>
        <mxCell id="tH7wvdJ0bGoqoePG1BPO-9" value="title" style="ellipse;whiteSpace=wrap;html=1;align=center;" vertex="1" parent="1">
          <mxGeometry x="-250" y="220" width="100" height="40" as="geometry" />
        </mxCell>
        <mxCell id="tH7wvdJ0bGoqoePG1BPO-10" value="is for" style="shape=rhombus;perimeter=rhombusPerimeter;whiteSpace=wrap;html=1;align=center;" vertex="1" parent="1">
          <mxGeometry x="-50" y="280" width="120" height="60" as="geometry" />
        </mxCell>
        <mxCell id="tH7wvdJ0bGoqoePG1BPO-11" value="" style="endArrow=none;html=1;rounded=0;entryX=0.5;entryY=1;entryDx=0;entryDy=0;exitX=0.5;exitY=0;exitDx=0;exitDy=0;" edge="1" parent="1" source="tH7wvdJ0bGoqoePG1BPO-1" target="tH7wvdJ0bGoqoePG1BPO-9">
          <mxGeometry relative="1" as="geometry">
            <mxPoint x="-110" y="590" as="sourcePoint" />
            <mxPoint x="50" y="590" as="targetPoint" />
          </mxGeometry>
        </mxCell>
        <mxCell id="tH7wvdJ0bGoqoePG1BPO-12" value="" style="endArrow=none;html=1;rounded=0;entryX=0;entryY=0.5;entryDx=0;entryDy=0;exitX=1;exitY=0.5;exitDx=0;exitDy=0;" edge="1" parent="1" source="tH7wvdJ0bGoqoePG1BPO-1" target="tH7wvdJ0bGoqoePG1BPO-10">
          <mxGeometry relative="1" as="geometry">
            <mxPoint x="-110" y="590" as="sourcePoint" />
            <mxPoint x="50" y="590" as="targetPoint" />
          </mxGeometry>
        </mxCell>
        <mxCell id="tH7wvdJ0bGoqoePG1BPO-13" value="1" style="resizable=0;html=1;whiteSpace=wrap;align=right;verticalAlign=bottom;" connectable="0" vertex="1" parent="tH7wvdJ0bGoqoePG1BPO-12">
          <mxGeometry x="1" relative="1" as="geometry" />
        </mxCell>
        <mxCell id="tH7wvdJ0bGoqoePG1BPO-14" value="" style="endArrow=none;html=1;rounded=0;entryX=1;entryY=0.5;entryDx=0;entryDy=0;exitX=0;exitY=0.5;exitDx=0;exitDy=0;" edge="1" parent="1" source="tH7wvdJ0bGoqoePG1BPO-2" target="tH7wvdJ0bGoqoePG1BPO-10">
          <mxGeometry relative="1" as="geometry">
            <mxPoint x="-110" y="590" as="sourcePoint" />
            <mxPoint x="50" y="590" as="targetPoint" />
          </mxGeometry>
        </mxCell>
        <mxCell id="tH7wvdJ0bGoqoePG1BPO-15" value="N" style="resizable=0;html=1;whiteSpace=wrap;align=right;verticalAlign=bottom;" connectable="0" vertex="1" parent="tH7wvdJ0bGoqoePG1BPO-14">
          <mxGeometry x="1" relative="1" as="geometry" />
        </mxCell>
        <mxCell id="tH7wvdJ0bGoqoePG1BPO-16" value="title" style="ellipse;whiteSpace=wrap;html=1;align=center;" vertex="1" parent="1">
          <mxGeometry x="50" y="250" width="100" height="40" as="geometry" />
        </mxCell>
        <mxCell id="tH7wvdJ0bGoqoePG1BPO-17" value="description" style="ellipse;whiteSpace=wrap;html=1;align=center;" vertex="1" parent="1">
          <mxGeometry x="270" y="210" width="100" height="40" as="geometry" />
        </mxCell>
        <mxCell id="tH7wvdJ0bGoqoePG1BPO-18" value="price" style="ellipse;whiteSpace=wrap;html=1;align=center;" vertex="1" parent="1">
          <mxGeometry x="340" y="250" width="100" height="40" as="geometry" />
        </mxCell>
        <mxCell id="tH7wvdJ0bGoqoePG1BPO-19" value="inventory" style="ellipse;whiteSpace=wrap;html=1;align=center;" vertex="1" parent="1">
          <mxGeometry x="330" y="310" width="100" height="40" as="geometry" />
        </mxCell>
        <mxCell id="tH7wvdJ0bGoqoePG1BPO-20" value="last_update" style="ellipse;whiteSpace=wrap;html=1;align=center;" vertex="1" parent="1">
          <mxGeometry x="250" y="350" width="100" height="40" as="geometry" />
        </mxCell>
        <mxCell id="tH7wvdJ0bGoqoePG1BPO-22" value="" style="endArrow=none;html=1;rounded=0;entryX=1;entryY=1;entryDx=0;entryDy=0;exitX=0;exitY=0;exitDx=0;exitDy=0;" edge="1" parent="1" source="tH7wvdJ0bGoqoePG1BPO-2" target="tH7wvdJ0bGoqoePG1BPO-16">
          <mxGeometry relative="1" as="geometry">
            <mxPoint x="-40" y="550" as="sourcePoint" />
            <mxPoint x="120" y="550" as="targetPoint" />
          </mxGeometry>
        </mxCell>
        <mxCell id="tH7wvdJ0bGoqoePG1BPO-23" value="is" style="shape=rhombus;perimeter=rhombusPerimeter;whiteSpace=wrap;html=1;align=center;" vertex="1" parent="1">
          <mxGeometry x="160" y="390" width="120" height="60" as="geometry" />
        </mxCell>
        <mxCell id="tH7wvdJ0bGoqoePG1BPO-24" value="is" style="shape=rhombus;perimeter=rhombusPerimeter;whiteSpace=wrap;html=1;align=center;" vertex="1" parent="1">
          <mxGeometry x="-10" y="390" width="120" height="60" as="geometry" />
        </mxCell>
        <mxCell id="tH7wvdJ0bGoqoePG1BPO-25" value="has" style="shape=rhombus;perimeter=rhombusPerimeter;whiteSpace=wrap;html=1;align=center;" vertex="1" parent="1">
          <mxGeometry x="160" y="640" width="120" height="60" as="geometry" />
        </mxCell>
        <mxCell id="tH7wvdJ0bGoqoePG1BPO-27" value="" style="endArrow=none;html=1;rounded=0;entryX=0.5;entryY=1;entryDx=0;entryDy=0;exitX=0.5;exitY=0;exitDx=0;exitDy=0;" edge="1" parent="1" source="tH7wvdJ0bGoqoePG1BPO-6" target="tH7wvdJ0bGoqoePG1BPO-25">
          <mxGeometry relative="1" as="geometry">
            <mxPoint x="-40" y="600" as="sourcePoint" />
            <mxPoint x="120" y="600" as="targetPoint" />
          </mxGeometry>
        </mxCell>
        <mxCell id="tH7wvdJ0bGoqoePG1BPO-28" value="1" style="resizable=0;html=1;whiteSpace=wrap;align=right;verticalAlign=bottom;" connectable="0" vertex="1" parent="tH7wvdJ0bGoqoePG1BPO-27">
          <mxGeometry x="1" relative="1" as="geometry" />
        </mxCell>
        <mxCell id="tH7wvdJ0bGoqoePG1BPO-31" value="" style="endArrow=none;html=1;rounded=0;entryX=0.5;entryY=0;entryDx=0;entryDy=0;exitX=0.5;exitY=1;exitDx=0;exitDy=0;" edge="1" parent="1" source="tH7wvdJ0bGoqoePG1BPO-7" target="tH7wvdJ0bGoqoePG1BPO-25">
          <mxGeometry relative="1" as="geometry">
            <mxPoint x="-40" y="600" as="sourcePoint" />
            <mxPoint x="120" y="600" as="targetPoint" />
          </mxGeometry>
        </mxCell>
        <mxCell id="tH7wvdJ0bGoqoePG1BPO-32" value="N" style="resizable=0;html=1;whiteSpace=wrap;align=right;verticalAlign=bottom;" connectable="0" vertex="1" parent="tH7wvdJ0bGoqoePG1BPO-31">
          <mxGeometry x="1" relative="1" as="geometry" />
        </mxCell>
        <mxCell id="tH7wvdJ0bGoqoePG1BPO-33" value="" style="endArrow=none;html=1;rounded=0;entryX=0.5;entryY=0;entryDx=0;entryDy=0;exitX=0.5;exitY=1;exitDx=0;exitDy=0;" edge="1" parent="1" source="tH7wvdJ0bGoqoePG1BPO-2" target="tH7wvdJ0bGoqoePG1BPO-23">
          <mxGeometry relative="1" as="geometry">
            <mxPoint x="-40" y="600" as="sourcePoint" />
            <mxPoint x="120" y="600" as="targetPoint" />
          </mxGeometry>
        </mxCell>
        <mxCell id="tH7wvdJ0bGoqoePG1BPO-34" value="N" style="resizable=0;html=1;whiteSpace=wrap;align=right;verticalAlign=bottom;" connectable="0" vertex="1" parent="tH7wvdJ0bGoqoePG1BPO-33">
          <mxGeometry x="1" relative="1" as="geometry" />
        </mxCell>
        <mxCell id="tH7wvdJ0bGoqoePG1BPO-35" value="" style="endArrow=none;html=1;rounded=0;entryX=0.5;entryY=1;entryDx=0;entryDy=0;exitX=0.5;exitY=0;exitDx=0;exitDy=0;" edge="1" parent="1" source="tH7wvdJ0bGoqoePG1BPO-7" target="tH7wvdJ0bGoqoePG1BPO-23">
          <mxGeometry relative="1" as="geometry">
            <mxPoint x="-40" y="600" as="sourcePoint" />
            <mxPoint x="120" y="600" as="targetPoint" />
          </mxGeometry>
        </mxCell>
        <mxCell id="tH7wvdJ0bGoqoePG1BPO-36" value="1" style="resizable=0;html=1;whiteSpace=wrap;align=right;verticalAlign=bottom;" connectable="0" vertex="1" parent="tH7wvdJ0bGoqoePG1BPO-35">
          <mxGeometry x="1" relative="1" as="geometry" />
        </mxCell>
        <mxCell id="tH7wvdJ0bGoqoePG1BPO-38" value="has" style="shape=rhombus;perimeter=rhombusPerimeter;whiteSpace=wrap;html=1;align=center;" vertex="1" parent="1">
          <mxGeometry x="-110" y="640" width="120" height="60" as="geometry" />
        </mxCell>
        <mxCell id="tH7wvdJ0bGoqoePG1BPO-39" value="" style="endArrow=none;html=1;rounded=0;entryX=0.5;entryY=1;entryDx=0;entryDy=0;exitX=0.5;exitY=0;exitDx=0;exitDy=0;" edge="1" parent="1" source="tH7wvdJ0bGoqoePG1BPO-4" target="tH7wvdJ0bGoqoePG1BPO-38">
          <mxGeometry relative="1" as="geometry">
            <mxPoint x="-40" y="600" as="sourcePoint" />
            <mxPoint x="120" y="600" as="targetPoint" />
          </mxGeometry>
        </mxCell>
        <mxCell id="tH7wvdJ0bGoqoePG1BPO-40" value="N" style="resizable=0;html=1;whiteSpace=wrap;align=right;verticalAlign=bottom;" connectable="0" vertex="1" parent="tH7wvdJ0bGoqoePG1BPO-39">
          <mxGeometry x="1" relative="1" as="geometry" />
        </mxCell>
        <mxCell id="tH7wvdJ0bGoqoePG1BPO-41" value="" style="endArrow=none;html=1;rounded=0;entryX=0.5;entryY=0;entryDx=0;entryDy=0;exitX=0.5;exitY=1;exitDx=0;exitDy=0;" edge="1" parent="1" source="tH7wvdJ0bGoqoePG1BPO-8" target="tH7wvdJ0bGoqoePG1BPO-38">
          <mxGeometry relative="1" as="geometry">
            <mxPoint x="-40" y="600" as="sourcePoint" />
            <mxPoint x="120" y="600" as="targetPoint" />
          </mxGeometry>
        </mxCell>
        <mxCell id="tH7wvdJ0bGoqoePG1BPO-42" value="1" style="resizable=0;html=1;whiteSpace=wrap;align=right;verticalAlign=bottom;" connectable="0" vertex="1" parent="tH7wvdJ0bGoqoePG1BPO-41">
          <mxGeometry x="1" relative="1" as="geometry" />
        </mxCell>
        <mxCell id="tH7wvdJ0bGoqoePG1BPO-43" value="" style="endArrow=none;html=1;rounded=0;entryX=0.5;entryY=0;entryDx=0;entryDy=0;exitX=0;exitY=1;exitDx=0;exitDy=0;" edge="1" parent="1" source="tH7wvdJ0bGoqoePG1BPO-2" target="tH7wvdJ0bGoqoePG1BPO-24">
          <mxGeometry relative="1" as="geometry">
            <mxPoint x="-40" y="600" as="sourcePoint" />
            <mxPoint x="120" y="600" as="targetPoint" />
          </mxGeometry>
        </mxCell>
        <mxCell id="tH7wvdJ0bGoqoePG1BPO-44" value="N" style="resizable=0;html=1;whiteSpace=wrap;align=right;verticalAlign=bottom;" connectable="0" vertex="1" parent="tH7wvdJ0bGoqoePG1BPO-43">
          <mxGeometry x="1" relative="1" as="geometry" />
        </mxCell>
        <mxCell id="tH7wvdJ0bGoqoePG1BPO-45" value="" style="endArrow=none;html=1;rounded=0;entryX=0.5;entryY=1;entryDx=0;entryDy=0;exitX=0.5;exitY=0;exitDx=0;exitDy=0;" edge="1" parent="1" source="tH7wvdJ0bGoqoePG1BPO-8" target="tH7wvdJ0bGoqoePG1BPO-24">
          <mxGeometry relative="1" as="geometry">
            <mxPoint x="-40" y="600" as="sourcePoint" />
            <mxPoint x="120" y="600" as="targetPoint" />
          </mxGeometry>
        </mxCell>
        <mxCell id="tH7wvdJ0bGoqoePG1BPO-46" value="1" style="resizable=0;html=1;whiteSpace=wrap;align=right;verticalAlign=bottom;" connectable="0" vertex="1" parent="tH7wvdJ0bGoqoePG1BPO-45">
          <mxGeometry x="1" relative="1" as="geometry" />
        </mxCell>
        <mxCell id="tH7wvdJ0bGoqoePG1BPO-47" value="promotion" style="whiteSpace=wrap;html=1;align=center;" vertex="1" parent="1">
          <mxGeometry x="170" y="50" width="100" height="40" as="geometry" />
        </mxCell>
        <mxCell id="tH7wvdJ0bGoqoePG1BPO-48" value="has" style="shape=rhombus;perimeter=rhombusPerimeter;whiteSpace=wrap;html=1;align=center;" vertex="1" parent="1">
          <mxGeometry x="160" y="160" width="120" height="60" as="geometry" />
        </mxCell>
        <mxCell id="tH7wvdJ0bGoqoePG1BPO-49" value="" style="endArrow=none;html=1;rounded=0;entryX=0;entryY=1;entryDx=0;entryDy=0;exitX=0.75;exitY=0;exitDx=0;exitDy=0;" edge="1" parent="1" source="tH7wvdJ0bGoqoePG1BPO-2" target="tH7wvdJ0bGoqoePG1BPO-17">
          <mxGeometry relative="1" as="geometry">
            <mxPoint x="40" y="460" as="sourcePoint" />
            <mxPoint x="200" y="460" as="targetPoint" />
          </mxGeometry>
        </mxCell>
        <mxCell id="tH7wvdJ0bGoqoePG1BPO-50" value="" style="endArrow=none;html=1;rounded=0;entryX=0;entryY=0.5;entryDx=0;entryDy=0;exitX=1;exitY=0;exitDx=0;exitDy=0;" edge="1" parent="1" source="tH7wvdJ0bGoqoePG1BPO-2" target="tH7wvdJ0bGoqoePG1BPO-18">
          <mxGeometry relative="1" as="geometry">
            <mxPoint x="370" y="460" as="sourcePoint" />
            <mxPoint x="530" y="460" as="targetPoint" />
          </mxGeometry>
        </mxCell>
        <mxCell id="tH7wvdJ0bGoqoePG1BPO-51" value="" style="endArrow=none;html=1;rounded=0;entryX=0;entryY=0.5;entryDx=0;entryDy=0;exitX=1;exitY=0.5;exitDx=0;exitDy=0;" edge="1" parent="1" source="tH7wvdJ0bGoqoePG1BPO-2" target="tH7wvdJ0bGoqoePG1BPO-19">
          <mxGeometry relative="1" as="geometry">
            <mxPoint x="370" y="460" as="sourcePoint" />
            <mxPoint x="530" y="460" as="targetPoint" />
          </mxGeometry>
        </mxCell>
        <mxCell id="tH7wvdJ0bGoqoePG1BPO-52" value="" style="endArrow=none;html=1;rounded=0;entryX=0.5;entryY=0;entryDx=0;entryDy=0;exitX=1;exitY=0.75;exitDx=0;exitDy=0;" edge="1" parent="1" source="tH7wvdJ0bGoqoePG1BPO-2" target="tH7wvdJ0bGoqoePG1BPO-20">
          <mxGeometry relative="1" as="geometry">
            <mxPoint x="280" y="340" as="sourcePoint" />
            <mxPoint x="530" y="460" as="targetPoint" />
          </mxGeometry>
        </mxCell>
        <mxCell id="tH7wvdJ0bGoqoePG1BPO-53" value="lived in" style="shape=rhombus;perimeter=rhombusPerimeter;whiteSpace=wrap;html=1;align=center;" vertex="1" parent="1">
          <mxGeometry x="-450" y="640" width="120" height="60" as="geometry" />
        </mxCell>
        <mxCell id="tH7wvdJ0bGoqoePG1BPO-54" value="is for" style="shape=rhombus;perimeter=rhombusPerimeter;whiteSpace=wrap;html=1;align=center;" vertex="1" parent="1">
          <mxGeometry x="-290" y="760" width="120" height="60" as="geometry" />
        </mxCell>
        <mxCell id="tH7wvdJ0bGoqoePG1BPO-56" value="description" style="ellipse;whiteSpace=wrap;html=1;align=center;" vertex="1" parent="1">
          <mxGeometry x="170" y="-40" width="100" height="40" as="geometry" />
        </mxCell>
        <mxCell id="tH7wvdJ0bGoqoePG1BPO-58" value="discount" style="ellipse;whiteSpace=wrap;html=1;align=center;" vertex="1" parent="1">
          <mxGeometry x="290" y="-10" width="100" height="40" as="geometry" />
        </mxCell>
        <mxCell id="tH7wvdJ0bGoqoePG1BPO-59" value="" style="endArrow=none;html=1;rounded=0;exitX=0.5;exitY=0;exitDx=0;exitDy=0;" edge="1" parent="1" source="tH7wvdJ0bGoqoePG1BPO-47" target="tH7wvdJ0bGoqoePG1BPO-56">
          <mxGeometry relative="1" as="geometry">
            <mxPoint x="220" y="20" as="sourcePoint" />
            <mxPoint x="380" y="20" as="targetPoint" />
          </mxGeometry>
        </mxCell>
        <mxCell id="tH7wvdJ0bGoqoePG1BPO-60" value="" style="endArrow=none;html=1;rounded=0;entryX=0;entryY=1;entryDx=0;entryDy=0;exitX=0.75;exitY=0;exitDx=0;exitDy=0;" edge="1" parent="1" source="tH7wvdJ0bGoqoePG1BPO-47" target="tH7wvdJ0bGoqoePG1BPO-58">
          <mxGeometry relative="1" as="geometry">
            <mxPoint x="220" y="20" as="sourcePoint" />
            <mxPoint x="380" y="20" as="targetPoint" />
          </mxGeometry>
        </mxCell>
        <mxCell id="tH7wvdJ0bGoqoePG1BPO-61" value="" style="endArrow=none;html=1;rounded=0;entryX=0.5;entryY=0;entryDx=0;entryDy=0;exitX=0.5;exitY=1;exitDx=0;exitDy=0;" edge="1" parent="1" source="tH7wvdJ0bGoqoePG1BPO-47" target="tH7wvdJ0bGoqoePG1BPO-48">
          <mxGeometry relative="1" as="geometry">
            <mxPoint x="140" y="200" as="sourcePoint" />
            <mxPoint x="300" y="200" as="targetPoint" />
          </mxGeometry>
        </mxCell>
        <mxCell id="tH7wvdJ0bGoqoePG1BPO-62" value="1" style="resizable=0;html=1;whiteSpace=wrap;align=right;verticalAlign=bottom;" connectable="0" vertex="1" parent="tH7wvdJ0bGoqoePG1BPO-61">
          <mxGeometry x="1" relative="1" as="geometry" />
        </mxCell>
        <mxCell id="tH7wvdJ0bGoqoePG1BPO-63" value="" style="endArrow=none;html=1;rounded=0;entryX=0.5;entryY=1;entryDx=0;entryDy=0;exitX=0.5;exitY=0;exitDx=0;exitDy=0;" edge="1" parent="1" source="tH7wvdJ0bGoqoePG1BPO-2" target="tH7wvdJ0bGoqoePG1BPO-48">
          <mxGeometry relative="1" as="geometry">
            <mxPoint x="140" y="200" as="sourcePoint" />
            <mxPoint x="300" y="200" as="targetPoint" />
          </mxGeometry>
        </mxCell>
        <mxCell id="tH7wvdJ0bGoqoePG1BPO-64" value="N" style="resizable=0;html=1;whiteSpace=wrap;align=right;verticalAlign=bottom;" connectable="0" vertex="1" parent="tH7wvdJ0bGoqoePG1BPO-63">
          <mxGeometry x="1" relative="1" as="geometry" />
        </mxCell>
        <mxCell id="tH7wvdJ0bGoqoePG1BPO-65" value="first name" style="ellipse;whiteSpace=wrap;html=1;align=center;" vertex="1" parent="1">
          <mxGeometry x="-560" y="690" width="100" height="40" as="geometry" />
        </mxCell>
        <mxCell id="tH7wvdJ0bGoqoePG1BPO-66" value="last name" style="ellipse;whiteSpace=wrap;html=1;align=center;" vertex="1" parent="1">
          <mxGeometry x="-610" y="740" width="100" height="40" as="geometry" />
        </mxCell>
        <mxCell id="tH7wvdJ0bGoqoePG1BPO-68" value="email" style="ellipse;whiteSpace=wrap;html=1;align=center;" vertex="1" parent="1">
          <mxGeometry x="-620" y="790" width="100" height="40" as="geometry" />
        </mxCell>
        <mxCell id="tH7wvdJ0bGoqoePG1BPO-69" value="phone" style="ellipse;whiteSpace=wrap;html=1;align=center;" vertex="1" parent="1">
          <mxGeometry x="-590" y="840" width="100" height="40" as="geometry" />
        </mxCell>
        <mxCell id="tH7wvdJ0bGoqoePG1BPO-70" value="birth date" style="ellipse;whiteSpace=wrap;html=1;align=center;" vertex="1" parent="1">
          <mxGeometry x="-410" y="890" width="100" height="40" as="geometry" />
        </mxCell>
        <mxCell id="tH7wvdJ0bGoqoePG1BPO-71" value="membership" style="ellipse;whiteSpace=wrap;html=1;align=center;" vertex="1" parent="1">
          <mxGeometry x="-520" y="890" width="100" height="40" as="geometry" />
        </mxCell>
        <mxCell id="tH7wvdJ0bGoqoePG1BPO-73" value="" style="endArrow=none;html=1;rounded=0;entryX=1;entryY=1;entryDx=0;entryDy=0;exitX=0.25;exitY=0;exitDx=0;exitDy=0;" edge="1" parent="1" source="tH7wvdJ0bGoqoePG1BPO-3" target="tH7wvdJ0bGoqoePG1BPO-65">
          <mxGeometry relative="1" as="geometry">
            <mxPoint x="-520" y="830" as="sourcePoint" />
            <mxPoint x="-360" y="830" as="targetPoint" />
          </mxGeometry>
        </mxCell>
        <mxCell id="tH7wvdJ0bGoqoePG1BPO-74" value="" style="endArrow=none;html=1;rounded=0;exitX=1;exitY=0.5;exitDx=0;exitDy=0;entryX=0;entryY=0.25;entryDx=0;entryDy=0;" edge="1" parent="1" source="tH7wvdJ0bGoqoePG1BPO-66" target="tH7wvdJ0bGoqoePG1BPO-3">
          <mxGeometry relative="1" as="geometry">
            <mxPoint x="-520" y="830" as="sourcePoint" />
            <mxPoint x="-360" y="830" as="targetPoint" />
          </mxGeometry>
        </mxCell>
        <mxCell id="tH7wvdJ0bGoqoePG1BPO-75" value="" style="endArrow=none;html=1;rounded=0;exitX=1;exitY=0.5;exitDx=0;exitDy=0;entryX=0;entryY=0.5;entryDx=0;entryDy=0;" edge="1" parent="1" source="tH7wvdJ0bGoqoePG1BPO-68" target="tH7wvdJ0bGoqoePG1BPO-3">
          <mxGeometry relative="1" as="geometry">
            <mxPoint x="-520" y="830" as="sourcePoint" />
            <mxPoint x="-360" y="830" as="targetPoint" />
          </mxGeometry>
        </mxCell>
        <mxCell id="tH7wvdJ0bGoqoePG1BPO-76" value="" style="endArrow=none;html=1;rounded=0;exitX=1;exitY=0;exitDx=0;exitDy=0;entryX=0;entryY=1;entryDx=0;entryDy=0;" edge="1" parent="1" source="tH7wvdJ0bGoqoePG1BPO-69" target="tH7wvdJ0bGoqoePG1BPO-3">
          <mxGeometry relative="1" as="geometry">
            <mxPoint x="-520" y="830" as="sourcePoint" />
            <mxPoint x="-360" y="830" as="targetPoint" />
          </mxGeometry>
        </mxCell>
        <mxCell id="tH7wvdJ0bGoqoePG1BPO-77" value="" style="endArrow=none;html=1;rounded=0;entryX=0.5;entryY=0;entryDx=0;entryDy=0;exitX=0.25;exitY=1;exitDx=0;exitDy=0;" edge="1" parent="1" source="tH7wvdJ0bGoqoePG1BPO-3" target="tH7wvdJ0bGoqoePG1BPO-71">
          <mxGeometry relative="1" as="geometry">
            <mxPoint x="-520" y="830" as="sourcePoint" />
            <mxPoint x="-360" y="830" as="targetPoint" />
          </mxGeometry>
        </mxCell>
        <mxCell id="tH7wvdJ0bGoqoePG1BPO-78" value="" style="endArrow=none;html=1;rounded=0;entryX=0.5;entryY=0;entryDx=0;entryDy=0;exitX=0.5;exitY=1;exitDx=0;exitDy=0;" edge="1" parent="1" source="tH7wvdJ0bGoqoePG1BPO-3" target="tH7wvdJ0bGoqoePG1BPO-70">
          <mxGeometry relative="1" as="geometry">
            <mxPoint x="-520" y="830" as="sourcePoint" />
            <mxPoint x="-360" y="830" as="targetPoint" />
          </mxGeometry>
        </mxCell>
        <mxCell id="tH7wvdJ0bGoqoePG1BPO-79" value="payment status" style="ellipse;whiteSpace=wrap;html=1;align=center;" vertex="1" parent="1">
          <mxGeometry x="-50" y="870" width="100" height="40" as="geometry" />
        </mxCell>
        <mxCell id="tH7wvdJ0bGoqoePG1BPO-80" value="placed_at" style="ellipse;whiteSpace=wrap;html=1;align=center;" vertex="1" parent="1">
          <mxGeometry x="-160" y="870" width="100" height="40" as="geometry" />
        </mxCell>
        <mxCell id="tH7wvdJ0bGoqoePG1BPO-82" value="" style="endArrow=none;html=1;rounded=0;entryX=0.5;entryY=0;entryDx=0;entryDy=0;exitX=0.25;exitY=1;exitDx=0;exitDy=0;" edge="1" parent="1" source="tH7wvdJ0bGoqoePG1BPO-4" target="tH7wvdJ0bGoqoePG1BPO-80">
          <mxGeometry relative="1" as="geometry">
            <mxPoint x="-160" y="830" as="sourcePoint" />
            <mxPoint y="830" as="targetPoint" />
          </mxGeometry>
        </mxCell>
        <mxCell id="tH7wvdJ0bGoqoePG1BPO-83" value="" style="endArrow=none;html=1;rounded=0;entryX=0.5;entryY=0;entryDx=0;entryDy=0;exitX=0.75;exitY=1;exitDx=0;exitDy=0;" edge="1" parent="1" source="tH7wvdJ0bGoqoePG1BPO-4" target="tH7wvdJ0bGoqoePG1BPO-79">
          <mxGeometry relative="1" as="geometry">
            <mxPoint x="-160" y="830" as="sourcePoint" />
            <mxPoint y="830" as="targetPoint" />
          </mxGeometry>
        </mxCell>
        <mxCell id="tH7wvdJ0bGoqoePG1BPO-84" value="" style="endArrow=none;html=1;rounded=0;entryX=0;entryY=0.5;entryDx=0;entryDy=0;exitX=1;exitY=0.5;exitDx=0;exitDy=0;" edge="1" parent="1" source="tH7wvdJ0bGoqoePG1BPO-3" target="tH7wvdJ0bGoqoePG1BPO-54">
          <mxGeometry relative="1" as="geometry">
            <mxPoint x="-160" y="830" as="sourcePoint" />
            <mxPoint y="830" as="targetPoint" />
          </mxGeometry>
        </mxCell>
        <mxCell id="tH7wvdJ0bGoqoePG1BPO-85" value="1" style="resizable=0;html=1;whiteSpace=wrap;align=right;verticalAlign=bottom;" connectable="0" vertex="1" parent="tH7wvdJ0bGoqoePG1BPO-84">
          <mxGeometry x="1" relative="1" as="geometry" />
        </mxCell>
        <mxCell id="tH7wvdJ0bGoqoePG1BPO-86" value="" style="endArrow=none;html=1;rounded=0;entryX=1;entryY=0.5;entryDx=0;entryDy=0;exitX=0;exitY=0.5;exitDx=0;exitDy=0;" edge="1" parent="1" source="tH7wvdJ0bGoqoePG1BPO-4" target="tH7wvdJ0bGoqoePG1BPO-54">
          <mxGeometry relative="1" as="geometry">
            <mxPoint x="-160" y="830" as="sourcePoint" />
            <mxPoint y="830" as="targetPoint" />
          </mxGeometry>
        </mxCell>
        <mxCell id="tH7wvdJ0bGoqoePG1BPO-87" value="N" style="resizable=0;html=1;whiteSpace=wrap;align=right;verticalAlign=bottom;" connectable="0" vertex="1" parent="tH7wvdJ0bGoqoePG1BPO-86">
          <mxGeometry x="1" relative="1" as="geometry" />
        </mxCell>
        <mxCell id="tH7wvdJ0bGoqoePG1BPO-88" value="street" style="ellipse;whiteSpace=wrap;html=1;align=center;" vertex="1" parent="1">
          <mxGeometry x="-490" y="430" width="100" height="40" as="geometry" />
        </mxCell>
        <mxCell id="tH7wvdJ0bGoqoePG1BPO-89" value="city" style="ellipse;whiteSpace=wrap;html=1;align=center;" vertex="1" parent="1">
          <mxGeometry x="-380" y="430" width="100" height="40" as="geometry" />
        </mxCell>
        <mxCell id="tH7wvdJ0bGoqoePG1BPO-90" value="" style="endArrow=none;html=1;rounded=0;exitX=0.5;exitY=1;exitDx=0;exitDy=0;entryX=0.25;entryY=0;entryDx=0;entryDy=0;" edge="1" parent="1" source="tH7wvdJ0bGoqoePG1BPO-88" target="tH7wvdJ0bGoqoePG1BPO-5">
          <mxGeometry relative="1" as="geometry">
            <mxPoint x="-270" y="730" as="sourcePoint" />
            <mxPoint x="-110" y="730" as="targetPoint" />
          </mxGeometry>
        </mxCell>
        <mxCell id="tH7wvdJ0bGoqoePG1BPO-91" value="" style="endArrow=none;html=1;rounded=0;entryX=0.5;entryY=1;entryDx=0;entryDy=0;exitX=0.75;exitY=0;exitDx=0;exitDy=0;" edge="1" parent="1" source="tH7wvdJ0bGoqoePG1BPO-5" target="tH7wvdJ0bGoqoePG1BPO-89">
          <mxGeometry relative="1" as="geometry">
            <mxPoint x="-270" y="730" as="sourcePoint" />
            <mxPoint x="-110" y="730" as="targetPoint" />
          </mxGeometry>
        </mxCell>
        <mxCell id="tH7wvdJ0bGoqoePG1BPO-92" value="" style="endArrow=none;html=1;rounded=0;entryX=0.5;entryY=0;entryDx=0;entryDy=0;exitX=0.5;exitY=1;exitDx=0;exitDy=0;" edge="1" parent="1" source="tH7wvdJ0bGoqoePG1BPO-5" target="tH7wvdJ0bGoqoePG1BPO-53">
          <mxGeometry relative="1" as="geometry">
            <mxPoint x="-270" y="730" as="sourcePoint" />
            <mxPoint x="-110" y="730" as="targetPoint" />
          </mxGeometry>
        </mxCell>
        <mxCell id="tH7wvdJ0bGoqoePG1BPO-93" value="1" style="resizable=0;html=1;whiteSpace=wrap;align=right;verticalAlign=bottom;" connectable="0" vertex="1" parent="tH7wvdJ0bGoqoePG1BPO-92">
          <mxGeometry x="1" relative="1" as="geometry" />
        </mxCell>
        <mxCell id="tH7wvdJ0bGoqoePG1BPO-94" value="" style="endArrow=none;html=1;rounded=0;entryX=0.5;entryY=1;entryDx=0;entryDy=0;exitX=0.5;exitY=0;exitDx=0;exitDy=0;" edge="1" parent="1" source="tH7wvdJ0bGoqoePG1BPO-3" target="tH7wvdJ0bGoqoePG1BPO-53">
          <mxGeometry relative="1" as="geometry">
            <mxPoint x="-270" y="730" as="sourcePoint" />
            <mxPoint x="-110" y="730" as="targetPoint" />
          </mxGeometry>
        </mxCell>
        <mxCell id="tH7wvdJ0bGoqoePG1BPO-95" value="1" style="resizable=0;html=1;whiteSpace=wrap;align=right;verticalAlign=bottom;" connectable="0" vertex="1" parent="tH7wvdJ0bGoqoePG1BPO-94">
          <mxGeometry x="1" relative="1" as="geometry" />
        </mxCell>
        <mxCell id="tH7wvdJ0bGoqoePG1BPO-96" value="created_at" style="ellipse;whiteSpace=wrap;html=1;align=center;" vertex="1" parent="1">
          <mxGeometry x="170" y="860" width="100" height="40" as="geometry" />
        </mxCell>
        <mxCell id="tH7wvdJ0bGoqoePG1BPO-97" value="" style="endArrow=none;html=1;rounded=0;entryX=0.5;entryY=0;entryDx=0;entryDy=0;exitX=0.5;exitY=1;exitDx=0;exitDy=0;" edge="1" parent="1" source="tH7wvdJ0bGoqoePG1BPO-6" target="tH7wvdJ0bGoqoePG1BPO-96">
          <mxGeometry relative="1" as="geometry">
            <mxPoint x="-40" y="620" as="sourcePoint" />
            <mxPoint x="120" y="620" as="targetPoint" />
          </mxGeometry>
        </mxCell>
        <mxCell id="tH7wvdJ0bGoqoePG1BPO-98" value="quantity" style="ellipse;whiteSpace=wrap;html=1;align=center;" vertex="1" parent="1">
          <mxGeometry x="280" y="470" width="100" height="40" as="geometry" />
        </mxCell>
        <mxCell id="tH7wvdJ0bGoqoePG1BPO-99" value="" style="endArrow=none;html=1;rounded=0;entryX=0;entryY=1;entryDx=0;entryDy=0;exitX=1;exitY=0;exitDx=0;exitDy=0;" edge="1" parent="1" source="tH7wvdJ0bGoqoePG1BPO-7" target="tH7wvdJ0bGoqoePG1BPO-98">
          <mxGeometry relative="1" as="geometry">
            <mxPoint x="50" y="620" as="sourcePoint" />
            <mxPoint x="210" y="620" as="targetPoint" />
          </mxGeometry>
        </mxCell>
        <mxCell id="tH7wvdJ0bGoqoePG1BPO-101" value="unit price" style="ellipse;whiteSpace=wrap;html=1;align=center;" vertex="1" parent="1">
          <mxGeometry x="-220" y="470" width="100" height="40" as="geometry" />
        </mxCell>
        <mxCell id="tH7wvdJ0bGoqoePG1BPO-102" value="quantity" style="ellipse;whiteSpace=wrap;html=1;align=center;" vertex="1" parent="1">
          <mxGeometry x="-140" y="430" width="100" height="40" as="geometry" />
        </mxCell>
        <mxCell id="tH7wvdJ0bGoqoePG1BPO-103" value="" style="endArrow=none;html=1;rounded=0;exitX=0.5;exitY=1;exitDx=0;exitDy=0;entryX=0.25;entryY=0;entryDx=0;entryDy=0;" edge="1" parent="1" source="tH7wvdJ0bGoqoePG1BPO-102" target="tH7wvdJ0bGoqoePG1BPO-8">
          <mxGeometry relative="1" as="geometry">
            <mxPoint x="-100" y="620" as="sourcePoint" />
            <mxPoint x="60" y="620" as="targetPoint" />
          </mxGeometry>
        </mxCell>
        <mxCell id="tH7wvdJ0bGoqoePG1BPO-104" value="" style="endArrow=none;html=1;rounded=0;exitX=1;exitY=1;exitDx=0;exitDy=0;entryX=0;entryY=0.25;entryDx=0;entryDy=0;" edge="1" parent="1" source="tH7wvdJ0bGoqoePG1BPO-101" target="tH7wvdJ0bGoqoePG1BPO-8">
          <mxGeometry relative="1" as="geometry">
            <mxPoint x="-100" y="620" as="sourcePoint" />
            <mxPoint x="60" y="620" as="targetPoint" />
          </mxGeometry>
        </mxCell>
      </root>
    </mxGraphModel>
  </diagram>
</mxfile>
